<svg width="824" height="650" viewBox="0 0 824 650" fill="none" xmlns="http://www.w3.org/2000/svg">
<path d="M262 650L4 393V259.5L262 520V650Z" fill="#548BFF"/>
<g filter="url(#filter0_d)">
<path d="M4 393V259.5L263 0V131L4 393Z" fill="#548BFF"/>
</g>
<path d="M562 0L820 257V390.5L562 130V0Z" fill="#548BFF"/>
<g filter="url(#filter1_d)">
<path d="M820 257V390.5L561 650V519L820 257Z" fill="#548BFF"/>
</g>
<g filter="url(#filter2_d)">
<path d="M493.6 381C491.067 376.333 487.4 372.8 482.6 370.4C477.933 367.867 472.4 366.6 466 366.6C454.933 366.6 446.067 370.267 439.4 377.6C432.733 384.8 429.4 394.467 429.4 406.6C429.4 419.533 432.867 429.667 439.8 437C446.867 444.2 456.533 447.8 468.8 447.8C477.2 447.8 484.267 445.667 490 441.4C495.867 437.133 500.133 431 502.8 423H459.4V397.8H533.8V429.6C531.267 438.133 526.933 446.067 520.8 453.4C514.8 460.733 507.133 466.667 497.8 471.2C488.467 475.733 477.933 478 466.2 478C452.333 478 439.933 475 429 469C418.2 462.867 409.733 454.4 403.6 443.6C397.6 432.8 394.6 420.467 394.6 406.6C394.6 392.733 397.6 380.4 403.6 369.6C409.733 358.667 418.2 350.2 429 344.2C439.8 338.067 452.133 335 466 335C482.8 335 496.933 339.067 508.4 347.2C520 355.333 527.667 366.6 531.4 381H493.6Z" fill="#548BFF"/>
<path d="M335.104 263.28V304.176H401.056V342.192H335.104V386.544H409.696V426H285.856V223.824H409.696V263.28H335.104Z" fill="#548BFF"/>
</g>
<defs>
<filter id="filter0_d" x="0" y="0" width="267" height="407" filterUnits="userSpaceOnUse" color-interpolation-filters="sRGB">
<feFlood flood-opacity="0" result="BackgroundImageFix"/>
<feColorMatrix in="SourceAlpha" type="matrix" values="0 0 0 0 0 0 0 0 0 0 0 0 0 0 0 0 0 0 127 0" result="hardAlpha"/>
<feOffset dy="10"/>
<feGaussianBlur stdDeviation="2"/>
<feComposite in2="hardAlpha" operator="out"/>
<feColorMatrix type="matrix" values="0 0 0 0 0 0 0 0 0 0 0 0 0 0 0 0 0 0 0.25 0"/>
<feBlend mode="normal" in2="BackgroundImageFix" result="effect1_dropShadow"/>
<feBlend mode="normal" in="SourceGraphic" in2="effect1_dropShadow" result="shape"/>
</filter>
<filter id="filter1_d" x="557" y="243" width="267" height="407" filterUnits="userSpaceOnUse" color-interpolation-filters="sRGB">
<feFlood flood-opacity="0" result="BackgroundImageFix"/>
<feColorMatrix in="SourceAlpha" type="matrix" values="0 0 0 0 0 0 0 0 0 0 0 0 0 0 0 0 0 0 127 0" result="hardAlpha"/>
<feOffset dy="-10"/>
<feGaussianBlur stdDeviation="2"/>
<feComposite in2="hardAlpha" operator="out"/>
<feColorMatrix type="matrix" values="0 0 0 0 0 0 0 0 0 0 0 0 0 0 0 0 0 0 0.25 0"/>
<feBlend mode="normal" in2="BackgroundImageFix" result="effect1_dropShadow"/>
<feBlend mode="normal" in="SourceGraphic" in2="effect1_dropShadow" result="shape"/>
</filter>
<filter id="filter2_d" x="281.856" y="223.824" width="255.944" height="268.176" filterUnits="userSpaceOnUse" color-interpolation-filters="sRGB">
<feFlood flood-opacity="0" result="BackgroundImageFix"/>
<feColorMatrix in="SourceAlpha" type="matrix" values="0 0 0 0 0 0 0 0 0 0 0 0 0 0 0 0 0 0 127 0" result="hardAlpha"/>
<feOffset dy="10"/>
<feGaussianBlur stdDeviation="2"/>
<feComposite in2="hardAlpha" operator="out"/>
<feColorMatrix type="matrix" values="0 0 0 0 0 0 0 0 0 0 0 0 0 0 0 0 0 0 0.25 0"/>
<feBlend mode="normal" in2="BackgroundImageFix" result="effect1_dropShadow"/>
<feBlend mode="normal" in="SourceGraphic" in2="effect1_dropShadow" result="shape"/>
</filter>
</defs>
</svg>
